<svg width="24" height="25" viewBox="0 0 24 25" fill="none" xmlns="http://www.w3.org/2000/svg">
<g clip-path="url(#clip0_432_20657)">
<path d="M1 18.5508C1 19.4062 1.65625 19.9688 2.76953 19.9688H7.71484C7.80859 22.2305 9.57812 24.2109 12.0508 24.2109C14.5352 24.2109 16.3047 22.2422 16.3984 19.9688H21.3438C22.4453 19.9688 23.1133 19.4062 23.1133 18.5508C23.1133 17.3789 21.918 16.3242 20.9102 15.2812C20.1367 14.4727 19.9258 12.8086 19.832 11.4609C19.75 6.84375 18.5547 3.86719 15.4375 2.74219C15.0391 1.20703 13.7852 0 12.0508 0C10.3281 0 9.0625 1.20703 8.67578 2.74219C5.55859 3.86719 4.36328 6.84375 4.28125 11.4609C4.1875 12.8086 3.97656 14.4727 3.20312 15.2812C2.18359 16.3242 1 17.3789 1 18.5508ZM3.27344 18.1992V18.0586C3.48438 17.7188 4.1875 17.0273 4.79688 16.3477C5.64062 15.4102 6.03906 13.8984 6.14453 11.6133C6.23828 6.49219 7.76172 4.86328 9.76562 4.3125C10.0586 4.24219 10.2227 4.10156 10.2344 3.79688C10.2695 2.57812 10.9727 1.72266 12.0508 1.72266C13.1406 1.72266 13.832 2.57812 13.8789 3.79688C13.8906 4.10156 14.043 4.24219 14.3359 4.3125C16.3516 4.86328 17.875 6.49219 17.9688 11.6133C18.0742 13.8984 18.4727 15.4102 19.3047 16.3477C19.9258 17.0273 20.6172 17.7188 20.8281 18.0586V18.1992H3.27344ZM9.54297 19.9688H14.5703C14.4766 21.5625 13.4688 22.5586 12.0508 22.5586C10.6445 22.5586 9.625 21.5625 9.54297 19.9688Z" fill="#37383C" fill-opacity="0.61"/>
</g>
<defs>
<clipPath id="clip0_432_20657">
<rect width="22.1133" height="24.2227" fill="white" transform="translate(1)"/>
</clipPath>
</defs>
</svg>
