<svg width="22" height="22" viewBox="0 0 22 22" fill="none" xmlns="http://www.w3.org/2000/svg">
<g clip-path="url(#clip0_983_10103)">
<path d="M15.6675 11.1532C15.6675 11.4136 15.5737 11.6429 15.3758 11.8407L7.11519 19.9138C6.9381 20.1014 6.70895 20.1952 6.43809 20.1952C5.89639 20.1952 5.47976 19.7888 5.47976 19.2471C5.47976 18.9764 5.59434 18.7471 5.76101 18.57L13.3445 11.1532L5.76101 3.73636C5.59434 3.55928 5.47976 3.3197 5.47976 3.05927C5.47976 2.51759 5.89639 2.11133 6.43809 2.11133C6.70895 2.11133 6.9381 2.20508 7.11519 2.38217L15.3758 10.4657C15.5737 10.6532 15.6675 10.8928 15.6675 11.1532Z" fill="#DCDCDC"/>
</g>
<defs>
<clipPath id="clip0_983_10103">
<rect width="10.1877" height="18.0942" fill="white" transform="matrix(-1 0 0 1 15.6675 2.11133)"/>
</clipPath>
</defs>
</svg>
