<svg width="22" height="22" viewBox="0 0 22 22" fill="none" xmlns="http://www.w3.org/2000/svg">
<g clip-path="url(#clip0_983_10096)">
<path d="M5.6665 11.1532C5.6665 11.4136 5.76026 11.6429 5.95818 11.8407L14.2188 19.9138C14.3959 20.1014 14.625 20.1952 14.8959 20.1952C15.4376 20.1952 15.8542 19.7888 15.8542 19.2471C15.8542 18.9764 15.7396 18.7471 15.573 18.57L7.98948 11.1532L15.573 3.73636C15.7396 3.55928 15.8542 3.3197 15.8542 3.05927C15.8542 2.51759 15.4376 2.11133 14.8959 2.11133C14.625 2.11133 14.3959 2.20508 14.2188 2.38217L5.95818 10.4657C5.76026 10.6532 5.6665 10.8928 5.6665 11.1532Z" fill="#DCDCDC"/>
</g>
<defs>
<clipPath id="clip0_983_10096">
<rect width="10.1877" height="18.0942" fill="white" transform="translate(5.6665 2.11133)"/>
</clipPath>
</defs>
</svg>
