<svg width="24" height="24" viewBox="0 0 24 24" fill="none" xmlns="http://www.w3.org/2000/svg">
<path d="M7.83333 13.6667C7.83333 13.8877 7.74554 14.0996 7.58926 14.2559C7.43298 14.4122 7.22101 14.5 7 14.5H6.16667C5.94565 14.5 5.73369 14.4122 5.57741 14.2559C5.42113 14.0996 5.33333 13.8877 5.33333 13.6667C5.33333 13.4457 5.42113 13.2337 5.57741 13.0774C5.73369 12.9211 5.94565 12.8333 6.16667 12.8333H7C7.22101 12.8333 7.43298 12.9211 7.58926 13.0774C7.74554 13.2337 7.83333 13.4457 7.83333 13.6667ZM11.1667 12.8333H10.3333C10.1123 12.8333 9.90036 12.9211 9.74408 13.0774C9.5878 13.2337 9.5 13.4457 9.5 13.6667C9.5 13.8877 9.5878 14.0996 9.74408 14.2559C9.90036 14.4122 10.1123 14.5 10.3333 14.5H11.1667C11.3877 14.5 11.5996 14.4122 11.7559 14.2559C11.9122 14.0996 12 13.8877 12 13.6667C12 13.4457 11.9122 13.2337 11.7559 13.0774C11.5996 12.9211 11.3877 12.8333 11.1667 12.8333ZM7 16.1667H6.16667C5.94565 16.1667 5.73369 16.2545 5.57741 16.4107C5.42113 16.567 5.33333 16.779 5.33333 17C5.33333 17.221 5.42113 17.433 5.57741 17.5893C5.73369 17.7455 5.94565 17.8333 6.16667 17.8333H7C7.22101 17.8333 7.43298 17.7455 7.58926 17.5893C7.74554 17.433 7.83333 17.221 7.83333 17C7.83333 16.779 7.74554 16.567 7.58926 16.4107C7.43298 16.2545 7.22101 16.1667 7 16.1667ZM11.1667 16.1667H10.3333C10.1123 16.1667 9.90036 16.2545 9.74408 16.4107C9.5878 16.567 9.5 16.779 9.5 17C9.5 17.221 9.5878 17.433 9.74408 17.5893C9.90036 17.7455 10.1123 17.8333 10.3333 17.8333H11.1667C11.3877 17.8333 11.5996 17.7455 11.7559 17.5893C11.9122 17.433 12 17.221 12 17C12 16.779 11.9122 16.567 11.7559 16.4107C11.5996 16.2545 11.3877 16.1667 11.1667 16.1667ZM7 6.16667H6.16667C5.94565 6.16667 5.73369 6.25446 5.57741 6.41074C5.42113 6.56702 5.33333 6.77899 5.33333 7C5.33333 7.22101 5.42113 7.43298 5.57741 7.58926C5.73369 7.74554 5.94565 7.83333 6.16667 7.83333H7C7.22101 7.83333 7.43298 7.74554 7.58926 7.58926C7.74554 7.43298 7.83333 7.22101 7.83333 7C7.83333 6.77899 7.74554 6.56702 7.58926 6.41074C7.43298 6.25446 7.22101 6.16667 7 6.16667ZM11.1667 6.16667H10.3333C10.1123 6.16667 9.90036 6.25446 9.74408 6.41074C9.5878 6.56702 9.5 6.77899 9.5 7C9.5 7.22101 9.5878 7.43298 9.74408 7.58926C9.90036 7.74554 10.1123 7.83333 10.3333 7.83333H11.1667C11.3877 7.83333 11.5996 7.74554 11.7559 7.58926C11.9122 7.43298 12 7.22101 12 7C12 6.77899 11.9122 6.56702 11.7559 6.41074C11.5996 6.25446 11.3877 6.16667 11.1667 6.16667ZM7 9.5H6.16667C5.94565 9.5 5.73369 9.5878 5.57741 9.74408C5.42113 9.90036 5.33333 10.1123 5.33333 10.3333C5.33333 10.5543 5.42113 10.7663 5.57741 10.9226C5.73369 11.0789 5.94565 11.1667 6.16667 11.1667H7C7.22101 11.1667 7.43298 11.0789 7.58926 10.9226C7.74554 10.7663 7.83333 10.5543 7.83333 10.3333C7.83333 10.1123 7.74554 9.90036 7.58926 9.74408C7.43298 9.5878 7.22101 9.5 7 9.5ZM11.1667 9.5H10.3333C10.1123 9.5 9.90036 9.5878 9.74408 9.74408C9.5878 9.90036 9.5 10.1123 9.5 10.3333C9.5 10.5543 9.5878 10.7663 9.74408 10.9226C9.90036 11.0789 10.1123 11.1667 10.3333 11.1667H11.1667C11.3877 11.1667 11.5996 11.0789 11.7559 10.9226C11.9122 10.7663 12 10.5543 12 10.3333C12 10.1123 11.9122 9.90036 11.7559 9.74408C11.5996 9.5878 11.3877 9.5 11.1667 9.5ZM22 10.3333V17.8333C21.9987 18.938 21.5593 19.997 20.7782 20.7782C19.997 21.5593 18.938 21.9987 17.8333 22H6.16667C5.062 21.9987 4.00296 21.5593 3.22185 20.7782C2.44073 19.997 2.00132 18.938 2 17.8333L2 6.16667C2.00132 5.062 2.44073 4.00296 3.22185 3.22185C4.00296 2.44073 5.062 2.00132 6.16667 2L11.1667 2C12.2713 2.00132 13.3304 2.44073 14.1115 3.22185C14.8926 4.00296 15.332 5.062 15.3333 6.16667H17.8333C18.938 6.16799 19.997 6.6074 20.7782 7.38852C21.5593 8.16963 21.9987 9.22867 22 10.3333V10.3333ZM6.16667 20.3333H13.6667V6.16667C13.6667 5.50363 13.4033 4.86774 12.9344 4.3989C12.4656 3.93006 11.8297 3.66667 11.1667 3.66667H6.16667C5.50363 3.66667 4.86774 3.93006 4.3989 4.3989C3.93006 4.86774 3.66667 5.50363 3.66667 6.16667V17.8333C3.66667 18.4964 3.93006 19.1323 4.3989 19.6011C4.86774 20.0699 5.50363 20.3333 6.16667 20.3333ZM20.3333 10.3333C20.3333 9.67029 20.0699 9.03441 19.6011 8.56557C19.1323 8.09673 18.4964 7.83333 17.8333 7.83333H15.3333V20.3333H17.8333C18.4964 20.3333 19.1323 20.0699 19.6011 19.6011C20.0699 19.1323 20.3333 18.4964 20.3333 17.8333V10.3333ZM17.8333 12.8333C17.6685 12.8333 17.5074 12.8822 17.3704 12.9738C17.2333 13.0653 17.1265 13.1955 17.0634 13.3478C17.0004 13.5 16.9839 13.6676 17.016 13.8292C17.0482 13.9909 17.1275 14.1394 17.2441 14.2559C17.3606 14.3725 17.5091 14.4518 17.6708 14.484C17.8324 14.5161 18 14.4996 18.1522 14.4366C18.3045 14.3735 18.4347 14.2667 18.5262 14.1296C18.6178 13.9926 18.6667 13.8315 18.6667 13.6667C18.6667 13.4457 18.5789 13.2337 18.4226 13.0774C18.2663 12.9211 18.0543 12.8333 17.8333 12.8333ZM17.8333 16.1667C17.6685 16.1667 17.5074 16.2155 17.3704 16.3071C17.2333 16.3987 17.1265 16.5288 17.0634 16.6811C17.0004 16.8334 16.9839 17.0009 17.016 17.1626C17.0482 17.3242 17.1275 17.4727 17.2441 17.5893C17.3606 17.7058 17.5091 17.7852 17.6708 17.8173C17.8324 17.8495 18 17.833 18.1522 17.7699C18.3045 17.7068 18.4347 17.6 18.5262 17.463C18.6178 17.3259 18.6667 17.1648 18.6667 17C18.6667 16.779 18.5789 16.567 18.4226 16.4107C18.2663 16.2545 18.0543 16.1667 17.8333 16.1667ZM17.8333 9.5C17.6685 9.5 17.5074 9.54887 17.3704 9.64044C17.2333 9.73201 17.1265 9.86216 17.0634 10.0144C17.0004 10.1667 16.9839 10.3343 17.016 10.4959C17.0482 10.6576 17.1275 10.806 17.2441 10.9226C17.3606 11.0391 17.5091 11.1185 17.6708 11.1507C17.8324 11.1828 18 11.1663 18.1522 11.1032C18.3045 11.0402 18.4347 10.9333 18.5262 10.7963C18.6178 10.6593 18.6667 10.4982 18.6667 10.3333C18.6667 10.1123 18.5789 9.90036 18.4226 9.74408C18.2663 9.5878 18.0543 9.5 17.8333 9.5Z" fill="#2A2A2A"/>
</svg>
