<svg width="24" height="24" viewBox="0 0 24 24" fill="none" xmlns="http://www.w3.org/2000/svg">
<path fill-rule="evenodd" clip-rule="evenodd" d="M5.84047 9.85617C7.62779 13.7481 10.8083 16.8422 14.762 18.5188L14.7745 18.5241L15.5383 18.8646C16.511 19.2979 17.6542 18.9901 18.2778 18.1271L19.5522 16.3633C19.63 16.2556 19.6099 16.1058 19.5065 16.0223L17.2818 14.2275C17.1712 14.1383 17.0085 14.1591 16.9239 14.2732L16.0581 15.4416C15.8478 15.7254 15.468 15.824 15.1463 15.6784C12.1899 14.3404 9.81416 11.9647 8.47622 9.00832C8.33061 8.68656 8.42921 8.30681 8.71296 8.09653L9.88134 7.23067C9.9955 7.14606 10.0163 6.98343 9.92706 6.87284L8.13202 4.6478C8.04859 4.54438 7.89884 4.52429 7.79111 4.60207L6.01782 5.88222C5.14903 6.50941 4.84307 7.66226 5.28654 8.63771L5.83988 9.85487C5.84008 9.8553 5.84027 9.85574 5.84047 9.85617ZM14.1701 19.8971C9.8741 18.0735 6.41874 14.7105 4.4767 10.4808L4.47553 10.4782L3.92102 9.2585C3.18192 7.63275 3.69185 5.71134 5.13983 4.66603L6.91313 3.38587C7.66725 2.84146 8.71548 2.98207 9.29947 3.70596L11.0945 5.931C11.7191 6.70517 11.5736 7.84357 10.7744 8.43581L10.1049 8.93196C11.2359 11.1264 13.0282 12.9187 15.2226 14.0497L15.7188 13.3801C16.311 12.581 17.4494 12.4355 18.2236 13.0601L20.4483 14.8549C21.1724 15.439 21.3129 16.4877 20.768 17.2418L19.4936 19.0055C18.4543 20.444 16.5489 20.957 14.9279 20.2347L14.1701 19.8971Z" fill="#2A2A2A"/>
</svg>
