<svg width="115" height="115" viewBox="0 0 115 115" fill="none" xmlns="http://www.w3.org/2000/svg">
<g clip-path="url(#clip0_1051_5805)">
<path d="M26.6121 100.591H37.5105C38.5149 100.591 39.2683 100.892 40.0216 101.646L47.7561 109.33C54.084 115.708 59.9601 115.658 66.2884 109.33L74.0229 101.646C74.8264 100.892 75.5293 100.591 76.584 100.591H87.4324C96.4221 100.591 100.591 96.4727 100.591 87.4324V76.584C100.591 75.5293 100.892 74.8264 101.646 74.0229L109.33 66.2884C115.708 59.9601 115.658 54.084 109.33 47.7561L101.646 40.0216C100.892 39.2683 100.591 38.5149 100.591 37.5105V26.6121C100.591 17.6723 96.4727 13.4535 87.4324 13.4535H76.584C75.5293 13.4535 74.8264 13.2024 74.0229 12.4491L66.2884 4.76494C59.9601 -1.6134 54.084 -1.56318 47.7561 4.76494L40.0216 12.4491C39.2683 13.2024 38.5149 13.4535 37.5105 13.4535H26.6121C17.6221 13.4535 13.4535 17.5719 13.4535 26.6121V37.5105C13.4535 38.5149 13.2024 39.2683 12.4491 40.0216L4.76494 47.7561C-1.6134 54.084 -1.56318 59.9601 4.76494 66.2884L12.4491 74.0229C13.2024 74.8264 13.4535 75.5293 13.4535 76.584V87.4324C13.4535 96.4221 17.6221 100.591 26.6121 100.591Z" fill="#FB7373"/>
<path d="M51.4223 81.5562C49.7148 81.5562 48.3087 80.9031 47.0029 79.1455L34.3968 63.6766C33.6434 62.6721 33.1914 61.5171 33.1914 60.4122C33.1914 58.1018 34.9492 56.2435 37.2595 56.2435C38.6658 56.2435 39.7707 56.7458 41.0262 58.4031L51.2217 71.5619L72.667 37.1086C73.621 35.5517 74.9268 34.7983 76.2828 34.7983C78.4424 34.7983 80.5017 36.3051 80.5017 38.6153C80.5017 39.7705 79.849 40.9256 79.246 41.9301L55.6411 79.1455C54.5864 80.7526 53.1301 81.5562 51.4223 81.5562Z" fill="white"/>
</g>
<defs>
<clipPath id="clip0_1051_5805">
<rect width="114.095" height="114.145" fill="white"/>
</clipPath>
</defs>
</svg>
