<svg width="20" height="20" viewBox="0 0 20 20" fill="none" xmlns="http://www.w3.org/2000/svg">
<path d="M9.5 0.850236C5.51667 1.10857 2.5 4.60024 2.5 8.5919V14.1669C2.5 15.5502 3.61667 16.6669 5 16.6669H5.83333C6.75 16.6669 7.5 15.9169 7.5 15.0002V11.6669C7.5 10.7502 6.75 10.0002 5.83333 10.0002H4.16667V8.57524C4.16667 5.37524 6.63333 2.5919 9.825 2.50024C10.6056 2.47681 11.383 2.61037 12.1111 2.89302C12.8392 3.17566 13.503 3.60163 14.0634 4.14565C14.6237 4.68968 15.0691 5.34069 15.3732 6.06007C15.6772 6.77946 15.8337 7.55257 15.8333 8.33357V10.0002H14.1667C13.25 10.0002 12.5 10.7502 12.5 11.6669V15.0002C12.5 15.9169 13.25 16.6669 14.1667 16.6669H15C16.3833 16.6669 17.5 15.5502 17.5 14.1669V8.33357C17.5 4.02524 13.8667 0.566903 9.5 0.850236Z" fill="#FA5454"/>
</svg>
