<svg width="30" height="30" viewBox="0 0 30 30" fill="none" xmlns="http://www.w3.org/2000/svg">
<g clip-path="url(#clip0_839_22943)">
<path fill-rule="evenodd" clip-rule="evenodd" d="M10.3662 15.8834C10.1319 15.649 10.0002 15.3312 10.0002 14.9997C10.0002 14.6682 10.1319 14.3504 10.3662 14.1159L17.4375 7.0447C17.5528 6.92531 17.6907 6.83008 17.8432 6.76457C17.9957 6.69906 18.1598 6.66458 18.3257 6.66313C18.4917 6.66169 18.6563 6.69332 18.8099 6.75617C18.9635 6.81902 19.1031 6.91184 19.2205 7.0292C19.3378 7.14657 19.4307 7.28613 19.4935 7.43975C19.5564 7.59337 19.588 7.75797 19.5865 7.92395C19.5851 8.08992 19.5506 8.25395 19.4851 8.40645C19.4196 8.55896 19.3244 8.69689 19.205 8.8122L13.0175 14.9997L19.205 21.1872C19.4327 21.423 19.5587 21.7387 19.5558 22.0664C19.553 22.3942 19.4215 22.7077 19.1898 22.9395C18.958 23.1712 18.6445 23.3027 18.3167 23.3055C17.989 23.3084 17.6732 23.1824 17.4375 22.9547L10.3662 15.8834Z" fill="#37383C" fill-opacity="0.28"/>
</g>
<defs>
<clipPath id="clip0_839_22943">
<rect width="30" height="30" fill="white"/>
</clipPath>
</defs>
</svg>
