<svg width="88" height="88" viewBox="0 0 88 88" fill="none" xmlns="http://www.w3.org/2000/svg">
<rect width="88" height="88" rx="24" fill="#FA5454"/>
<path d="M66.4299 55.1535C66.8757 49.7667 65.1437 46.2946 62.7214 43.2808C61.3682 41.5098 59.8296 40.0301 58.3304 38.4727C56.3145 36.3017 54.3734 33.9481 53.0873 30.8294C52.3693 29.0002 51.8446 26.8485 51.6118 24.2115C51.2449 22.289 51.7538 19.6869 52.0734 17.7799C52.1089 17.6712 52.1444 17.5624 52.176 17.4537C52.4166 16.5915 52.4324 15.772 52.0971 15.337C52.0892 15.3254 52.0852 15.3137 52.0773 15.306C52.0695 15.2943 52.0576 15.2904 52.0497 15.2788C51.7341 14.9215 51.1463 14.8632 50.1955 15.3681C50.1363 15.3953 50.0811 15.4225 50.0259 15.4497C45.7572 17.4148 42.8851 19.982 40.877 22.6968C40.8455 22.7395 40.8139 22.7822 40.7823 22.8249C40.6916 22.9531 40.6009 23.0774 40.5141 23.2056C40.443 23.3065 40.376 23.4036 40.3089 23.5046C40.2616 23.5745 40.2142 23.6483 40.1669 23.7182C40.0604 23.8813 39.9538 24.0445 39.8552 24.2076C39.8473 24.2192 39.8434 24.227 39.8355 24.2386C36.9634 28.8642 36.2651 33.649 35.2591 36.4687C34.5016 38.5465 33.5666 39.5485 31.452 38.6125C31.4362 38.6047 31.4244 38.6009 31.4086 38.5931C31.3337 38.5581 31.2547 38.5193 31.1758 38.4805C31.1048 38.4455 31.0378 38.4144 30.9668 38.3717C30.9549 38.364 30.9431 38.3562 30.9312 38.3523C30.1304 37.9134 29.1717 37.2299 28.0237 36.2706C27.7159 36.0337 27.2583 35.5599 26.7691 35.1948C26.7573 35.1831 26.7454 35.1754 26.7336 35.1637C26.5008 34.9462 26.2444 34.8219 25.9958 34.7715C25.8025 34.7132 25.6092 34.6977 25.4317 34.7559C25.412 34.7753 25.3922 34.7948 25.3725 34.8142C24.9938 34.9501 24.686 35.288 24.5677 35.7929C24.4651 36.0842 24.3625 36.3716 24.2639 36.659C23.9799 37.3581 23.7313 38.1698 23.5104 39.0281C22.3663 42.8808 21.7232 46.6092 21.5891 50.093C20.9539 58.6567 23.7471 64.9251 28.9508 68.7079C33.6534 72.3121 40.664 73.885 50.1916 72.5024C52.6336 72.0441 54.9218 71.1392 56.9733 69.8964C57.0088 69.8731 57.0443 69.8536 57.0798 69.8303C57.2376 69.7332 57.3954 69.6361 57.5532 69.5352C60.7133 67.5001 63.2303 64.6571 64.7847 61.2783C65.5264 59.6937 66.0354 58.0081 66.2878 56.2721C66.347 55.9031 66.3944 55.5303 66.4338 55.1574L66.4299 55.1535Z" fill="white"/>
</svg>
