<svg width="20" height="20" viewBox="0 0 20 20" fill="none" xmlns="http://www.w3.org/2000/svg">
<g clip-path="url(#clip0_166_3372)">
<path d="M4.90796 17.6448H15.4297C16.8193 17.6448 17.4805 17.2263 17.4805 16.3055C17.4805 14.1124 14.7099 10.94 10.173 10.94C5.62783 10.94 2.85718 14.1124 2.85718 16.3055C2.85718 17.2263 3.51845 17.6448 4.90796 17.6448ZM4.51454 16.3809C4.29691 16.3809 4.20483 16.3223 4.20483 16.1465C4.20483 14.7654 6.33095 12.2039 10.173 12.2039C14.0067 12.2039 16.1328 14.7654 16.1328 16.1465C16.1328 16.3223 16.0492 16.3809 15.8315 16.3809H4.51454ZM10.173 9.89372C12.1652 9.89372 13.7891 8.12751 13.7891 5.96791C13.7891 3.82506 12.1736 2.14258 10.173 2.14258C8.18921 2.14258 6.55696 3.85854 6.55696 5.98466C6.55696 8.13588 8.18083 9.89372 10.173 9.89372ZM10.173 8.62974C8.95093 8.62974 7.90461 7.46624 7.90461 5.98466C7.90461 4.52818 8.93419 3.40653 10.173 3.40653C11.4202 3.40653 12.4415 4.50307 12.4415 5.96791C12.4415 7.4495 11.4035 8.62974 10.173 8.62974Z" fill="#FA5454"/>
</g>
<defs>
<clipPath id="clip0_166_3372">
<rect width="14.6234" height="15.5106" fill="white" transform="translate(2.85718 2.14258)"/>
</clipPath>
</defs>
</svg>
