<svg width="48" height="48" viewBox="0 0 48 48" fill="none" xmlns="http://www.w3.org/2000/svg">
<path fill-rule="evenodd" clip-rule="evenodd" d="M37.5001 20.9993L37.487 21.485L37.5001 21.9993L37.4877 22.4858L37.5001 22.9993L37.4883 23.4891L37.5 23.9993L37.1752 38.2054C37.0982 41.5759 34.5346 44.3672 31.1828 44.7302C26.408 45.2473 21.5912 45.2473 16.8164 44.7302C13.4645 44.3672 10.901 41.5759 10.824 38.2054L10.4992 23.9993L10.5109 23.4857L10.4992 22.9993L10.5115 22.4878L10.4991 21.9993L10.5121 21.4873L10.499 20.9993L10.827 8.80348C10.8316 8.63333 10.8436 8.46493 10.8626 8.29863L10.8701 8.22831L10.876 8.17163C11.0372 6.52343 11.9506 5.08591 13.2816 4.22325C13.3809 4.1572 13.4826 4.09431 13.5864 4.03471C13.6879 3.97461 13.7916 3.9176 13.8973 3.86383C14.5505 3.5191 15.2794 3.29567 16.0554 3.22424C21.3404 2.73775 26.6588 2.73775 31.9437 3.22424C32.7185 3.29555 33.4464 3.51839 34.0987 3.86218C34.2044 3.91588 34.3081 3.9728 34.4097 4.03283C34.5168 4.09421 34.6216 4.1591 34.7239 4.22733C36.0478 5.08806 36.9572 6.51812 37.1219 8.15803L37.1374 8.30663C37.1559 8.47034 37.1676 8.63606 37.1721 8.80349L37.5001 20.9993ZM34.1481 8.64072L34.462 22.3741L34.2076 31.8345C34.1504 33.9612 32.5122 35.7094 30.3937 35.9044C26.1399 36.2959 21.8592 36.2959 17.6055 35.9044C15.4869 35.7094 13.8487 33.9612 13.7915 31.8345L13.5371 22.3752L13.8511 8.64072C13.8518 8.61117 13.853 8.58175 13.8548 8.55247C13.9737 7.74791 14.44 7.05342 15.1011 6.63169C15.3515 6.50113 15.6294 6.41455 15.925 6.38254C21.2924 5.80128 26.7068 5.80128 32.0742 6.38254C32.3696 6.41454 32.6474 6.50106 32.8978 6.63154C33.5592 7.05336 34.0256 7.74819 34.1445 8.55314C34.1462 8.5822 34.1474 8.6114 34.1481 8.64072ZM23.9996 43.3994C25.6565 43.3994 26.9996 42.0562 26.9996 40.3994C26.9996 38.7425 25.6565 37.3994 23.9996 37.3994C22.3428 37.3994 20.9996 38.7425 20.9996 40.3994C20.9996 42.0562 22.3428 43.3994 23.9996 43.3994Z" fill="black"/>
</svg>
