<svg width="24" height="24" viewBox="0 0 24 24" fill="none" xmlns="http://www.w3.org/2000/svg">
<g clip-path="url(#clip0_731_28296)">
<path d="M3.42871 11.7146C3.42871 12.2068 3.84054 12.6085 4.32269 12.6085H10.8216V19.1074C10.8216 19.5896 11.2234 20.0014 11.7155 20.0014C12.2077 20.0014 12.6196 19.5896 12.6196 19.1074V12.6085H19.1084C19.5906 12.6085 20.0023 12.2068 20.0023 11.7146C20.0023 11.2224 19.5906 10.8105 19.1084 10.8105H12.6196V4.32171C12.6196 3.83956 12.2077 3.42773 11.7155 3.42773C11.2234 3.42773 10.8216 3.83956 10.8216 4.32171V10.8105H4.32269C3.84054 10.8105 3.42871 11.2224 3.42871 11.7146Z" fill="#FB7373"/>
</g>
<defs>
<clipPath id="clip0_731_28296">
<rect width="16.5736" height="16.5837" fill="white" transform="translate(3.42871 3.42773)"/>
</clipPath>
</defs>
</svg>
