<svg width="25" height="25" viewBox="0 0 25 25" fill="none" xmlns="http://www.w3.org/2000/svg">
<g clip-path="url(#clip0_166_3207)">
<path d="M0 12.0078C-2.34975e-08 10.4309 0.310591 8.86948 0.91404 7.41262C1.51749 5.95577 2.40198 4.63204 3.51701 3.51701C4.63203 2.40198 5.95577 1.51749 7.41262 0.91404C8.86948 0.310591 10.4309 0 12.0078 0C13.5847 0 15.1461 0.310591 16.603 0.91404C18.0599 1.51749 19.3836 2.40198 20.4986 3.51701C21.6136 4.63204 22.4981 5.95577 23.1016 7.41262C23.705 8.86948 24.0156 10.4309 24.0156 12.0078C24.0156 15.1925 22.7505 18.2467 20.4986 20.4986C18.2467 22.7505 15.1925 24.0156 12.0078 24.0156C8.82314 24.0156 5.76891 22.7505 3.51701 20.4986C1.26511 18.2467 4.74553e-08 15.1925 0 12.0078Z" fill="#70737C" fill-opacity="0.08"/>
<path d="M12.0078 13.723C14.5341 13.723 16.5822 11.675 16.5822 9.14862C16.5822 6.62225 14.5341 4.57422 12.0078 4.57422C9.48138 4.57422 7.43335 6.62225 7.43335 9.14862C7.43335 11.675 9.48138 13.723 12.0078 13.723Z" fill="#2E2F33" fill-opacity="0.88"/>
<path fill-rule="evenodd" clip-rule="evenodd" d="M20.3064 20.3416C20.3865 20.471 20.3611 20.6351 20.2531 20.7378C18.0262 22.8467 15.0747 24.0201 12.0077 24.016C8.94073 24.0201 5.98921 22.8467 3.76233 20.7378C3.70979 20.6876 3.67589 20.6211 3.6662 20.549C3.6565 20.477 3.67158 20.4039 3.70896 20.3416C5.2593 17.7692 8.39334 16.0107 12.0077 16.0107C15.622 16.0107 18.7547 17.7692 20.3064 20.3416Z" fill="#2E2F33" fill-opacity="0.88"/>
</g>
<defs>
<clipPath id="clip0_166_3207">
<rect width="24.0156" height="24.0156" fill="white"/>
</clipPath>
</defs>
</svg>
