<svg width="24" height="24" viewBox="0 0 24 24" fill="none" xmlns="http://www.w3.org/2000/svg">
<path d="M20.9544 4.0045C21.0027 3.87055 21.0119 3.72561 20.9808 3.58662C20.9498 3.44764 20.8799 3.32036 20.7792 3.21967C20.6785 3.11898 20.5512 3.04903 20.4122 3.01801C20.2732 2.98699 20.1283 2.99618 19.9944 3.0445L3.49435 9.0445C3.35157 9.09627 3.22786 9.19017 3.13961 9.31378C3.05136 9.43739 3.00271 9.58488 3.00011 9.73674C2.99751 9.8886 3.04107 10.0377 3.12504 10.1642C3.20901 10.2908 3.32942 10.3889 3.47035 10.4455L10.1199 13.105L14.4699 8.47L15.5304 9.5305L11.0604 14.2945L13.5534 20.5285C13.6098 20.6695 13.7078 20.79 13.8343 20.8741C13.9607 20.9582 14.1097 21.0019 14.2616 20.9995C14.4135 20.997 14.561 20.9485 14.6847 20.8604C14.8084 20.7723 14.9024 20.6487 14.9544 20.506L20.9544 4.0045Z" fill="#37383C" fill-opacity="0.61"/>
<path d="M20.9544 4.0045C21.0027 3.87055 21.0119 3.72561 20.9808 3.58662C20.9498 3.44764 20.8799 3.32036 20.7792 3.21967C20.6785 3.11898 20.5512 3.04903 20.4122 3.01801C20.2732 2.98699 20.1283 2.99618 19.9944 3.0445L3.49435 9.0445C3.35157 9.09627 3.22786 9.19017 3.13961 9.31378C3.05136 9.43739 3.00271 9.58488 3.00011 9.73674C2.99751 9.8886 3.04107 10.0377 3.12504 10.1642C3.20901 10.2908 3.32942 10.3889 3.47035 10.4455L10.1199 13.105L14.4699 8.47L15.5304 9.5305L11.0604 14.2945L13.5534 20.5285C13.6098 20.6695 13.7078 20.79 13.8343 20.8741C13.9607 20.9582 14.1097 21.0019 14.2616 20.9995C14.4135 20.997 14.561 20.9485 14.6847 20.8604C14.8084 20.7723 14.9024 20.6487 14.9544 20.506L20.9544 4.0045Z" fill="#37383C" fill-opacity="0.61"/>
</svg>
