<svg width="30" height="30" viewBox="0 0 30 30" fill="none" xmlns="http://www.w3.org/2000/svg">
<path fill-rule="evenodd" clip-rule="evenodd" d="M10.3662 14.1161C10.1319 14.3505 10.0002 14.6684 10.0002 14.9998C10.0002 15.3313 10.1319 15.6492 10.3662 15.8836L17.4375 22.9548C17.5528 23.0742 17.6907 23.1694 17.8432 23.2349C17.9957 23.3005 18.1598 23.3349 18.3257 23.3364C18.4917 23.3378 18.6563 23.3062 18.8099 23.2433C18.9635 23.1805 19.1031 23.0877 19.2205 22.9703C19.3378 22.8529 19.4307 22.7134 19.4935 22.5598C19.5564 22.4061 19.588 22.2415 19.5865 22.0756C19.5851 21.9096 19.5506 21.7456 19.4851 21.5931C19.4196 21.4406 19.3244 21.3026 19.205 21.1873L13.0175 14.9998L19.205 8.81231C19.4327 8.57656 19.5587 8.26081 19.5558 7.93306C19.553 7.60532 19.4215 7.2918 19.1898 7.06004C18.958 6.82828 18.6445 6.69682 18.3167 6.69397C17.989 6.69112 17.6732 6.81712 17.4375 7.04481L10.3662 14.1161Z" fill="#37383C" fill-opacity="0.61"/>
</svg>
