<svg width="30" height="30" viewBox="0 0 30 30" fill="none" xmlns="http://www.w3.org/2000/svg">
<path fill-rule="evenodd" clip-rule="evenodd" d="M19.6338 15.8834C19.8681 15.649 19.9998 15.3312 19.9998 14.9997C19.9998 14.6682 19.8681 14.3504 19.6338 14.1159L12.5625 7.0447C12.4472 6.92531 12.3093 6.83008 12.1568 6.76457C12.0043 6.69906 11.8402 6.66458 11.6743 6.66313C11.5083 6.66169 11.3437 6.69332 11.1901 6.75617C11.0365 6.81902 10.8969 6.91184 10.7795 7.0292C10.6622 7.14657 10.5693 7.28613 10.5065 7.43975C10.4436 7.59337 10.412 7.75797 10.4135 7.92395C10.4149 8.08992 10.4494 8.25395 10.5149 8.40645C10.5804 8.55896 10.6756 8.69689 10.795 8.8122L16.9825 14.9997L10.795 21.1872C10.5673 21.423 10.4413 21.7387 10.4442 22.0664C10.447 22.3942 10.5785 22.7077 10.8102 22.9395C11.042 23.1712 11.3555 23.3027 11.6833 23.3055C12.011 23.3084 12.3268 23.1824 12.5625 22.9547L19.6338 15.8834Z" fill="#37383C" fill-opacity="0.61"/>
</svg>
