<svg width="24" height="24" viewBox="0 0 24 24" fill="none" xmlns="http://www.w3.org/2000/svg">
<g clip-path="url(#clip0_652_657)">
<path fill-rule="evenodd" clip-rule="evenodd" d="M12.7071 8.29315C12.5196 8.10567 12.2653 8.00036 12.0001 8.00036C11.7349 8.00036 11.4806 8.10567 11.2931 8.29315L5.6361 13.9501C5.54059 14.0424 5.46441 14.1527 5.412 14.2747C5.35959 14.3967 5.332 14.528 5.33085 14.6607C5.32969 14.7935 5.355 14.9252 5.40528 15.0481C5.45556 15.171 5.52981 15.2826 5.6237 15.3765C5.7176 15.4704 5.82925 15.5447 5.95214 15.595C6.07504 15.6452 6.20672 15.6705 6.3395 15.6694C6.47228 15.6682 6.6035 15.6407 6.7255 15.5882C6.84751 15.5358 6.95785 15.4597 7.0501 15.3641L12.0001 10.4141L16.9501 15.3641C17.1387 15.5463 17.3913 15.6471 17.6535 15.6448C17.9157 15.6425 18.1665 15.5374 18.3519 15.352C18.5373 15.1666 18.6425 14.9157 18.6448 14.6535C18.6471 14.3913 18.5463 14.1387 18.3641 13.9501L12.7071 8.29315Z" fill="#37383C" fill-opacity="0.61"/>
</g>
<defs>
<clipPath id="clip0_652_657">
<rect width="24" height="24" fill="white" transform="matrix(1 0 0 -1 0 24)"/>
</clipPath>
</defs>
</svg>
