<svg width="28" height="28" viewBox="0 0 28 28" fill="none" xmlns="http://www.w3.org/2000/svg">
<g clip-path="url(#clip0_15757_27361)">
<path d="M13.9531 25.9062C20.4922 25.9062 25.9062 20.4805 25.9062 13.9531C25.9062 7.41406 20.4805 2 13.9414 2C7.41406 2 2 7.41406 2 13.9531C2 20.4805 7.42578 25.9062 13.9531 25.9062ZM13.9531 23.9141C8.42188 23.9141 4.00391 19.4844 4.00391 13.9531C4.00391 8.42188 8.41016 3.99219 13.9414 3.99219C19.4727 3.99219 23.9141 8.42188 23.9141 13.9531C23.9141 19.4844 19.4844 23.9141 13.9531 23.9141Z" fill="#171717"/>
<path d="M9.94531 18.9102C10.2148 18.9102 10.4492 18.8047 10.625 18.6172L13.9414 15.2891L17.2812 18.6172C17.457 18.793 17.6797 18.9102 17.9492 18.9102C18.4648 18.9102 18.8867 18.4883 18.8867 17.9609C18.8867 17.6914 18.793 17.4805 18.6055 17.293L15.2773 13.9648L18.6172 10.6133C18.8164 10.4141 18.8984 10.2148 18.8984 9.95703C18.8984 9.44141 18.4766 9.01953 17.9609 9.01953C17.7148 9.01953 17.5156 9.11328 17.3164 9.3125L13.9414 12.6523L10.6016 9.32422C10.4258 9.13672 10.2148 9.04297 9.94531 9.04297C9.42969 9.04297 9.00781 9.45312 9.00781 9.96875C9.00781 10.2266 9.11328 10.4492 9.28906 10.625L12.6172 13.9648L9.28906 17.3047C9.11328 17.4805 9.00781 17.7031 9.00781 17.9609C9.00781 18.4883 9.42969 18.9102 9.94531 18.9102Z" fill="#171717"/>
</g>
<defs>
<clipPath id="clip0_15757_27361">
<rect width="23.9062" height="23.918" fill="white" transform="translate(2 2)"/>
</clipPath>
</defs>
</svg>
